<?xml version="1.0" encoding="UTF-8" standalone="no"?>
<!-- Created with Inkscape (http://www.inkscape.org/) -->

<svg
   xmlns:dc="http://purl.org/dc/elements/1.1/"
   xmlns:cc="http://creativecommons.org/ns#"
   xmlns:rdf="http://www.w3.org/1999/02/22-rdf-syntax-ns#"
   xmlns:svg="http://www.w3.org/2000/svg"
   xmlns="http://www.w3.org/2000/svg"
   xmlns:sodipodi="http://sodipodi.sourceforge.net/DTD/sodipodi-0.dtd"
   xmlns:inkscape="http://www.inkscape.org/namespaces/inkscape"
   width="389.07104"
   height="223.36739"
   id="svg2"
   version="1.1"
   inkscape:version="0.48.4 r9939"
   sodipodi:docname="tami.svg">
  <defs
     id="defs4" />
  <sodipodi:namedview
     id="base"
     pagecolor="#ffffff"
     bordercolor="#666666"
     borderopacity="1.0"
     inkscape:pageopacity="0.0"
     inkscape:pageshadow="2"
     inkscape:zoom="0.98994949"
     inkscape:cx="354.13491"
     inkscape:cy="37.394236"
     inkscape:document-units="mm"
     inkscape:current-layer="layer1"
     showgrid="false"
     units="mm"
     showguides="true"
     inkscape:guide-bbox="true"
     inkscape:window-width="1920"
     inkscape:window-height="1014"
     inkscape:window-x="0"
     inkscape:window-y="27"
     inkscape:window-maximized="1"
     fit-margin-top="0"
     fit-margin-left="0"
     fit-margin-right="0"
     fit-margin-bottom="0">
    <sodipodi:guide
       orientation="-0.70710678,0.70710678"
       position="-517.25033,569.23197"
       id="guide3699" />
    <sodipodi:guide
       orientation="1,0"
       position="35.606806,164.94627"
       id="guide3701" />
    <sodipodi:guide
       orientation="1,0"
       position="412.74967,312.08913"
       id="guide3703" />
    <sodipodi:guide
       orientation="0,1"
       position="210.24967,1.3321667"
       id="guide3705" />
  </sodipodi:namedview>
  <metadata
     id="metadata7">
    <rdf:RDF>
      <cc:Work
         rdf:about="">
        <dc:format>image/svg+xml</dc:format>
        <dc:type
           rdf:resource="http://purl.org/dc/dcmitype/StillImage" />
        <dc:title />
      </cc:Work>
    </rdf:RDF>
  </metadata>
  <g
     inkscape:label="Ebene 1"
     inkscape:groupmode="layer"
     id="layer1"
     transform="translate(-112.96462,-393.94102)">
    <path
       style="fill:#000000;fill-opacity:1;stroke:none"
       d="m 240.0528,616.74419 0.87717,-164.92477 -14.29767,1.61013 -2.63563,163.61613 c 8.49892,0.29812 13.59882,0.50072 16.05613,-0.30149 z"
       id="rect4090-3"
       inkscape:connector-curvature="0"
       sodipodi:nodetypes="ccccc" />
    <path
       sodipodi:nodetypes="ccccc"
       inkscape:connector-curvature="0"
       id="path3082"
       style="font-size:7px;font-style:normal;font-variant:normal;font-weight:normal;font-stretch:normal;line-height:125%;letter-spacing:0px;word-spacing:0px;fill:#000000;fill-opacity:1;stroke:none;font-family:Visitor TT1 BRK;-inkscape-font-specification:Visitor TT1 BRK"
       d="m 258.13706,617.12061 13.31878,0 0,-7.0879 -13.31878,0 z" />
    <path
       inkscape:connector-curvature="0"
       id="path3084"
       style="font-size:7px;font-style:normal;font-variant:normal;font-weight:normal;font-stretch:normal;line-height:125%;letter-spacing:0px;word-spacing:0px;fill:#000000;fill-opacity:1;stroke:none;font-family:Visitor TT1 BRK;-inkscape-font-specification:Visitor TT1 BRK"
       d="m 329.94021,617.12061 13.31897,0 0,-103.02194 -66.5901,0 0,103.02194 13.31879,0 0,-41.21142 39.95234,0 z m -39.95234,-82.41637 39.95234,0 0,20.60586 -39.95234,0 z" />
    <path
       sodipodi:nodetypes="ccccc"
       inkscape:connector-curvature="0"
       id="path3086"
       style="font-size:7px;font-style:normal;font-variant:normal;font-weight:normal;font-stretch:normal;line-height:125%;letter-spacing:0px;word-spacing:0px;fill:#000000;fill-opacity:1;stroke:none;font-family:Visitor TT1 BRK;-inkscape-font-specification:Visitor TT1 BRK"
       d="m 348.52513,617.12061 13.31897,0 0,-7.0879 -13.31897,0 z" />
    <path
       sodipodi:nodetypes="cccccccccccccccccccccc"
       inkscape:connector-curvature="0"
       id="path3088"
       style="font-size:7px;font-style:normal;font-variant:normal;font-weight:normal;font-stretch:normal;line-height:125%;letter-spacing:0px;word-spacing:0px;fill:#000000;fill-opacity:1;stroke:none;font-family:Visitor TT1 BRK;-inkscape-font-specification:Visitor TT1 BRK"
       d="m 380.37613,555.3101 13.31878,0 0,6.11567 13.31478,0 0,-6.11567 -13.31478,0 0,-20.60586 -13.31878,0 0,-20.60557 -13.31897,0 0,103.02194 13.31897,0 z m 39.95234,61.81051 13.31879,0 0,-103.02194 -13.31879,0 0,20.60557 -13.31878,0 0,20.60586 13.31878,0 z" />
    <path
       sodipodi:nodetypes="ccccc"
       inkscape:connector-curvature="0"
       id="path3090"
       style="font-size:7px;font-style:normal;font-variant:normal;font-weight:normal;font-stretch:normal;line-height:125%;letter-spacing:0px;word-spacing:0px;fill:#000000;fill-opacity:1;stroke:none;font-family:Visitor TT1 BRK;-inkscape-font-specification:Visitor TT1 BRK"
       d="m 438.91339,617.12061 13.31878,0 0,-8.05337 -13.31878,0 z" />
    <path
       sodipodi:nodetypes="ccccccccccccc"
       inkscape:connector-curvature="0"
       id="path3092"
       style="font-size:7px;font-style:normal;font-variant:normal;font-weight:normal;font-stretch:normal;line-height:125%;letter-spacing:0px;word-spacing:0px;fill:#000000;fill-opacity:1;stroke:none;font-family:Visitor TT1 BRK;-inkscape-font-specification:Visitor TT1 BRK"
       d="m 459.4454,525.04873 14.63784,0 0,84.01851 -14.63784,0 0,8.05337 42.59027,0 0,-8.05337 -14.63765,0 0,-84.01851 14.63765,0 0,-10.95006 -42.59027,0 z" />
    <rect
       style="font-size:40px;font-style:normal;font-weight:normal;line-height:125%;letter-spacing:0px;word-spacing:0px;fill:#000000;fill-opacity:1;stroke:none;font-family:Sans"
       y="538.82544"
       x="387.85312"
       height="16.465137"
       width="23.490953"
       id="rect3094" />
    <rect
       style="font-size:40px;font-style:normal;font-weight:normal;line-height:125%;letter-spacing:0px;word-spacing:0px;fill:#ffffff;fill-opacity:1;stroke:none;font-family:Sans"
       y="509.77148"
       x="265.95435"
       height="7.7860408"
       width="17.740524"
       id="rect3113" />
    <rect
       style="font-size:40px;font-style:normal;font-weight:normal;line-height:125%;letter-spacing:0px;word-spacing:0px;fill:#ffffff;fill-opacity:1;stroke:none;font-family:Sans"
       y="509.77148"
       x="335.27164"
       height="7.7860408"
       width="17.740524"
       id="rect3113-1" />
    <text
       xml:space="preserve"
       style="font-size:181.93661499px;font-style:normal;font-weight:normal;line-height:125%;letter-spacing:0px;word-spacing:0px;fill:#000000;fill-opacity:1;stroke:none;font-family:Sans"
       x="156.49879"
       y="655.75067"
       id="text3096"
       sodipodi:linespacing="125%"
       transform="scale(1.0222976,0.97818874)"><tspan
         sodipodi:role="line"
         id="tspan3098"
         x="156.49879"
         y="655.75067"
         style="font-size:31.83890915px;font-style:normal;font-variant:normal;font-weight:normal;font-stretch:normal;font-family:Visitor TT1 BRK;-inkscape-font-specification:Visitor TT1 BRK" /></text>
    <rect
       style="fill:#000000;fill-opacity:1;fill-rule:evenodd;stroke:none"
       id="rect2987-74"
       width="11.048734"
       height="9.7746801"
       x="214.40146"
       y="363.42972"
       transform="matrix(0.97966128,0.20065836,-0.26011533,0.96557755,0,0)" />
    <rect
       style="fill:#000000;fill-opacity:1;fill-rule:evenodd;stroke:none"
       id="rect2987-7-9"
       width="11.048734"
       height="9.7746801"
       x="225.45018"
       y="373.20441"
       transform="matrix(0.97966128,0.20065836,-0.26011533,0.96557755,0,0)" />
    <rect
       style="fill:#000000;fill-opacity:1;fill-rule:evenodd;stroke:none"
       id="rect2987-7-0-1"
       width="11.048734"
       height="9.7746801"
       x="236.49892"
       y="382.9791"
       transform="matrix(0.97966128,0.20065836,-0.26011533,0.96557755,0,0)" />
    <rect
       style="fill:#000000;fill-opacity:1;fill-rule:evenodd;stroke:none"
       id="rect2987-7-4-8"
       width="11.048734"
       height="9.7746801"
       x="280.69385"
       y="422.07782"
       transform="matrix(0.97966128,0.20065836,-0.26011533,0.96557755,0,0)" />
    <rect
       style="fill:#000000;fill-opacity:1;fill-rule:evenodd;stroke:none"
       id="rect2987-7-8-5"
       width="11.048734"
       height="9.7746801"
       x="291.74258"
       y="-441.6272"
       transform="matrix(0.97966128,0.20065836,0.26011533,-0.96557755,0,0)" />
    <rect
       style="fill:#000000;fill-opacity:1;fill-rule:evenodd;stroke:none"
       id="rect2987-7-45-8"
       width="11.048734"
       height="9.7746801"
       x="258.59637"
       y="402.52844"
       transform="matrix(0.97966128,0.20065836,-0.26011533,0.96557755,0,0)" />
    <rect
       style="fill:#000000;fill-opacity:1;fill-rule:evenodd;stroke:none"
       id="rect2987-7-1-2"
       width="11.048734"
       height="9.7746801"
       x="247.54765"
       y="392.75378"
       transform="matrix(0.97966128,0.20065836,-0.26011533,0.96557755,0,0)" />
    <rect
       style="fill:#000000;fill-opacity:1;fill-rule:evenodd;stroke:none"
       id="rect2987-7-11-8"
       width="11.048734"
       height="9.7746801"
       x="269.64511"
       y="412.30313"
       transform="matrix(0.97966128,0.20065836,-0.26011533,0.96557755,0,0)" />
    <rect
       style="fill:#000000;fill-opacity:1;fill-rule:evenodd;stroke:none"
       id="rect2987-7-4-2-5"
       width="11.048734"
       height="9.7746801"
       x="324.88879"
       y="461.17654"
       transform="matrix(0.97966128,0.20065836,-0.26011533,0.96557755,0,0)" />
    <rect
       style="fill:#000000;fill-opacity:1;fill-rule:evenodd;stroke:none"
       id="rect2987-7-8-6-0"
       width="11.048734"
       height="9.7746801"
       x="313.84006"
       y="-461.17654"
       transform="matrix(0.97966128,0.20065836,0.26011533,-0.96557755,0,0)" />
    <rect
       style="fill:#000000;fill-opacity:1;fill-rule:evenodd;stroke:none"
       id="rect2987-7-11-4-1"
       width="11.048734"
       height="9.7746801"
       x="302.79132"
       y="441.62717"
       transform="matrix(0.97966128,0.20065836,-0.26011533,0.96557755,0,0)" />
    <path
       style="fill:#000000;fill-opacity:1;stroke:none"
       d="m 149.64652,474.98968 348.1393,-11.14576 -0.92947,-8.80411 -353.4158,2.77981 c -1.30992,8.68174 4.44262,14.77126 6.20597,17.17006 z"
       id="rect4090-2"
       inkscape:connector-curvature="0"
       sodipodi:nodetypes="ccccc" />
    <rect
       style="fill:#000000;fill-opacity:1;fill-rule:evenodd;stroke:none"
       id="rect2987-7-9-3"
       width="11.048734"
       height="9.7746801"
       x="337.21844"
       y="347.53375"
       transform="matrix(0.97966128,0.20065836,-0.26011533,0.96557755,0,0)" />
    <rect
       style="fill:#000000;fill-opacity:1;fill-rule:evenodd;stroke:none"
       id="rect2987-7-0-1-9"
       width="11.048734"
       height="9.7746801"
       x="348.26718"
       y="357.30844"
       transform="matrix(0.97966128,0.20065836,-0.26011533,0.96557755,0,0)" />
    <rect
       style="fill:#000000;fill-opacity:1;fill-rule:evenodd;stroke:none"
       id="rect2987-7-4-8-8"
       width="11.048734"
       height="9.7746801"
       x="392.46213"
       y="396.40717"
       transform="matrix(0.97966128,0.20065836,-0.26011533,0.96557755,0,0)" />
    <rect
       style="fill:#000000;fill-opacity:1;fill-rule:evenodd;stroke:none"
       id="rect2987-7-8-5-8"
       width="11.048734"
       height="9.7746801"
       x="403.51086"
       y="-415.95654"
       transform="matrix(0.97966128,0.20065836,0.26011533,-0.96557755,0,0)" />
    <rect
       style="fill:#000000;fill-opacity:1;fill-rule:evenodd;stroke:none"
       id="rect2987-7-45-8-6"
       width="11.048734"
       height="9.7746801"
       x="370.36465"
       y="376.85779"
       transform="matrix(0.97966128,0.20065836,-0.26011533,0.96557755,0,0)" />
    <rect
       style="fill:#000000;fill-opacity:1;fill-rule:evenodd;stroke:none"
       id="rect2987-7-1-2-0"
       width="11.048734"
       height="9.7746801"
       x="359.31592"
       y="367.08313"
       transform="matrix(0.97966128,0.20065836,-0.26011533,0.96557755,0,0)" />
    <rect
       style="fill:#000000;fill-opacity:1;fill-rule:evenodd;stroke:none"
       id="rect2987-7-11-8-8"
       width="11.048734"
       height="9.7746801"
       x="381.41339"
       y="386.63248"
       transform="matrix(0.97966128,0.20065836,-0.26011533,0.96557755,0,0)" />
    <rect
       style="fill:#000000;fill-opacity:1;fill-rule:evenodd;stroke:none"
       id="rect2987-7-8-6-0-5"
       width="11.048734"
       height="9.7746801"
       x="425.60831"
       y="-435.50589"
       transform="matrix(0.97966128,0.20065836,0.26011533,-0.96557755,0,0)" />
    <rect
       style="fill:#000000;fill-opacity:1;fill-rule:evenodd;stroke:none"
       id="rect2987-7-11-4-1-9"
       width="11.048734"
       height="9.7746801"
       x="414.55957"
       y="415.95651"
       transform="matrix(0.97966128,0.20065836,-0.26011533,0.96557755,0,0)" />
    <rect
       style="fill:#000000;fill-opacity:1;fill-rule:evenodd;stroke:none"
       id="rect2987-7-0-1-0"
       width="11.048734"
       height="9.7746801"
       x="444.08768"
       y="335.94745"
       transform="matrix(0.97966128,0.20065836,-0.26011533,0.96557755,0,0)" />
    <rect
       style="fill:#000000;fill-opacity:1;fill-rule:evenodd;stroke:none"
       id="rect2987-7-4-8-6"
       width="11.048734"
       height="9.7746801"
       x="488.28259"
       y="375.04617"
       transform="matrix(0.97966128,0.20065836,-0.26011533,0.96557755,0,0)" />
    <rect
       style="fill:#000000;fill-opacity:1;fill-rule:evenodd;stroke:none"
       id="rect2987-7-8-5-0"
       width="11.048734"
       height="9.7746801"
       x="499.33133"
       y="-394.59555"
       transform="matrix(0.97966128,0.20065836,0.26011533,-0.96557755,0,0)" />
    <rect
       style="fill:#000000;fill-opacity:1;fill-rule:evenodd;stroke:none"
       id="rect2987-7-45-8-1"
       width="11.048734"
       height="9.7746801"
       x="466.18512"
       y="355.4968"
       transform="matrix(0.97966128,0.20065836,-0.26011533,0.96557755,0,0)" />
    <rect
       style="fill:#000000;fill-opacity:1;fill-rule:evenodd;stroke:none"
       id="rect2987-7-1-2-9"
       width="11.048734"
       height="9.7746801"
       x="455.13641"
       y="345.72214"
       transform="matrix(0.97966128,0.20065836,-0.26011533,0.96557755,0,0)" />
    <rect
       style="fill:#000000;fill-opacity:1;fill-rule:evenodd;stroke:none"
       id="rect2987-7-11-8-4"
       width="11.048734"
       height="9.7746801"
       x="477.23386"
       y="365.27148"
       transform="matrix(0.97966128,0.20065836,-0.26011533,0.96557755,0,0)" />
    <rect
       style="fill:#000000;fill-opacity:1;fill-rule:evenodd;stroke:none"
       id="rect2987-7-11-4-1-8"
       width="11.048734"
       height="9.7746801"
       x="510.38007"
       y="394.59552"
       transform="matrix(0.97966128,0.20065836,-0.26011533,0.96557755,0,0)" />
    <rect
       style="fill:#000000;fill-opacity:1;fill-rule:evenodd;stroke:none"
       id="rect2987-7-4-8-7"
       width="11.048734"
       height="9.7746801"
       x="575.53149"
       y="359.35873"
       transform="matrix(0.97966128,0.20065836,-0.26011533,0.96557755,0,0)" />
    <rect
       style="fill:#000000;fill-opacity:1;fill-rule:evenodd;stroke:none"
       id="rect2987-7-8-5-4"
       width="11.048734"
       height="9.7746801"
       x="586.5802"
       y="-378.90811"
       transform="matrix(0.97966128,0.20065836,0.26011533,-0.96557755,0,0)" />
    <rect
       style="fill:#000000;fill-opacity:1;fill-rule:evenodd;stroke:none"
       id="rect2987-7-45-8-65"
       width="11.048734"
       height="9.7746801"
       x="553.43402"
       y="339.80936"
       transform="matrix(0.97966128,0.20065836,-0.26011533,0.96557755,0,0)" />
    <rect
       style="fill:#000000;fill-opacity:1;fill-rule:evenodd;stroke:none"
       id="rect2987-7-1-2-09"
       width="11.048734"
       height="9.7746801"
       x="542.38525"
       y="330.0347"
       transform="matrix(0.97966128,0.20065836,-0.26011533,0.96557755,0,0)" />
    <rect
       style="fill:#000000;fill-opacity:1;fill-rule:evenodd;stroke:none"
       id="rect2987-7-11-8-6"
       width="11.048734"
       height="9.7746801"
       x="564.48273"
       y="349.58405"
       transform="matrix(0.97966128,0.20065836,-0.26011533,0.96557755,0,0)" />
  </g>
</svg>
